<?xml version="1.0" encoding="UTF-8" standalone="no"?>
<svg width="77px" height="32px" viewBox="0 0 77 32" version="1.1" xmlns="http://www.w3.org/2000/svg" xmlns:xlink="http://www.w3.org/1999/xlink">
    <!-- Generator: Sketch 3.8.3 (29802) - http://www.bohemiancoding.com/sketch -->
    <title>pestik</title>
    <desc>Created with Sketch.</desc>
    <defs></defs>
    <g id="Page-1" stroke="none" stroke-width="1" fill="none" fill-rule="evenodd" opacity="0.414762127">
        <g id="Group-2" transform="translate(-409.000000, -81.000000)" fill="#000000">
            <g id="Logo" transform="translate(213.000000, 80.000000)">
                <g id="pestik" transform="translate(234.500000, 17.507937) scale(-1, 1) translate(-234.500000, -17.507937) translate(196.000000, 1.507937)">
                    <path d="M72.78,13.0915556 C72.78,11.5296508 74.025,10.2648889 75.563,10.2648889 C75.563,10.2648889 76.725,10.4386032 76.896,10.2648889 C77.067,10.0911746 76.9985,9.31250794 76.896,9.21092063 C76.7935,9.10933333 76.691,9.18095238 76.5935,9.18095238 C75.0555,9.18095238 73.8105,7.91619048 73.8105,6.35377778 C73.8105,5.47352381 74.206,4.68977778 74.826,4.16863492 L74.826,4.16609524 C75.0165,4.00711111 75.1335,3.76939683 75.1335,3.50374603 C75.1335,3.02273016 74.7525,2.63568254 74.284,2.63568254 C74.2545,2.63568254 74.2305,2.6407619 74.201,2.64330159 L74.196,2.63568254 L72.4625,2.63568254 L71.7155,1.43796825 L69.3525,1.43796825 L69.3525,0.507936508 L67.9025,0.507936508 L67.9025,1.43796825 L36.2725,1.43796825 L36.2725,0.507936508 L34.8225,0.507936508 L34.4365,1.43796825 L33.831,1.43796825 L33.831,2.21155556 L32,2.21155556 L32,5.07631746 L33.831,5.07631746 L33.831,9.18095238 L36.8045,9.18095238 L37.1465,10.4208254 L48.5035,10.4208254 L48.5035,10.4553651 C49.939,10.6661587 51.0475,11.896381 51.0915,13.4019048 L51.0965,13.4019048 L51.0965,14.0190476 C51.0965,16.008127 53.572,17.6203175 56.6235,17.6203175 C56.6725,17.6203175 56.721,17.6152381 56.775,17.6152381 C56.775,17.6152381 59.8365,17.3506032 60.4715,17.3506032 C62.0095,17.3506032 63.074,18.3446349 63.2545,19.8648889 C63.318,20.3982222 64.2455,26.6580317 64.2455,26.6580317 L64.2455,31.0176508 L74.3035,31.0176508 L74.3035,30.3182222 L76.9745,30.3182222 C76.9745,26.9582222 74.797,19.5550476 73.205,14.5828571 C72.936,14.1480635 72.78,13.640127 72.78,13.0915556 L72.78,13.0915556 Z M56.662,17.1174603 C53.923,17.1174603 51.7065,15.6688254 51.7065,13.8854603 C51.7065,12.0995556 53.9235,10.6519365 56.662,10.6519365 C57.165,10.6519365 57.658,10.7017143 58.117,10.7956825 C58.3515,11.2919365 58.488,11.8445714 58.488,12.4347937 C58.478,15.1156825 55.173,15.8328889 55.3,16.1655873 C55.432,16.4977778 60.07,15.096381 59.899,11.9639365 C59.8845,11.7734603 59.86,11.5875556 59.8305,11.4016508 C60.9195,11.9964444 61.6125,12.8868571 61.6125,13.8864762 C61.6135,15.6693333 59.3965,17.1174603 56.662,17.1174603 L56.662,17.1174603 Z" id="Shape"></path>
                    <rect id="Rectangle-14" x="0" y="0" width="32.5" height="7.11111111"></rect>
                </g>
            </g>
        </g>
    </g>
</svg>
